<?xml version="1.0" encoding="utf-8"?>
<!-- Generator: Adobe Illustrator 21.1.0, SVG Export Plug-In . SVG Version: 6.00 Build 0)  -->
<svg version="1.1" id="Layer_1" xmlns="http://www.w3.org/2000/svg" xmlns:xlink="http://www.w3.org/1999/xlink" x="0px" y="0px"
	 viewBox="0 0 341.7 112.1" style="enable-background:new 0 0 341.7 112.1;" xml:space="preserve">
<style type="text/css">
	.st0{fill:#FFFFFF;}
	.st1{fill:#FCC513;}
	.st2{fill:#CCCE00;}
	.st3{fill:#53BFD2;}
	.st4{fill:#00A5A9;}
	.st5{fill:#DD032C;}
	.st6{fill:#E9510F;}
	.st7{fill:#EA5777;}
	.st8{fill:#BB097E;}
	.st9{fill:none;stroke:#833A78;stroke-width:2;stroke-linecap:round;stroke-miterlimit:10;}
	.st10{fill:none;}
</style>
<g>
	<g>
		<path class="st0" d="M161.5,45.2v1.5h-7.3V33.8h1.7v11.4H161.5z"/>
		<path class="st0" d="M166.2,37.4c0.7,0,1.3,0.1,1.8,0.3c0.5,0.2,1,0.5,1.4,0.9c0.4,0.4,0.7,0.9,0.9,1.5s0.3,1.2,0.3,1.9
			c0,0.7-0.1,1.4-0.3,1.9c-0.2,0.6-0.5,1.1-0.9,1.5c-0.4,0.4-0.8,0.7-1.4,0.9c-0.5,0.2-1.1,0.3-1.8,0.3c-0.7,0-1.3-0.1-1.8-0.3
			c-0.5-0.2-1-0.5-1.4-0.9c-0.4-0.4-0.7-0.9-0.9-1.5c-0.2-0.6-0.3-1.2-0.3-1.9c0-0.7,0.1-1.4,0.3-1.9s0.5-1.1,0.9-1.5
			c0.4-0.4,0.8-0.7,1.4-0.9C165,37.5,165.6,37.4,166.2,37.4z M166.2,45.5c0.9,0,1.6-0.3,2-0.9c0.4-0.6,0.7-1.4,0.7-2.5
			c0-1.1-0.2-1.9-0.7-2.5c-0.4-0.6-1.1-0.9-2-0.9c-0.5,0-0.9,0.1-1.2,0.2c-0.3,0.2-0.6,0.4-0.8,0.7c-0.2,0.3-0.4,0.7-0.5,1.1
			c-0.1,0.4-0.2,0.9-0.2,1.5c0,1.1,0.2,1.9,0.7,2.5S165.3,45.5,166.2,45.5z"/>
		<path class="st0" d="M174.1,38.9c0.2-0.2,0.4-0.4,0.6-0.6c0.2-0.2,0.5-0.3,0.7-0.5c0.2-0.1,0.5-0.2,0.8-0.3
			c0.3-0.1,0.6-0.1,0.9-0.1c0.5,0,0.9,0.1,1.3,0.2c0.4,0.2,0.7,0.4,1,0.7c0.3,0.3,0.4,0.7,0.6,1.1c0.1,0.4,0.2,0.9,0.2,1.4v5.8h-1.6
			v-5.8c0-0.7-0.2-1.2-0.5-1.6c-0.3-0.4-0.8-0.6-1.4-0.6c-0.5,0-0.9,0.1-1.3,0.3c-0.4,0.2-0.8,0.5-1.1,0.9v6.7h-1.6v-9.1h1
			c0.2,0,0.4,0.1,0.4,0.3L174.1,38.9z"/>
		<path class="st0" d="M190.2,33.4v13.3h-1c-0.2,0-0.4-0.1-0.4-0.3l-0.1-1.1c-0.4,0.5-0.8,0.8-1.3,1.1s-1.1,0.4-1.7,0.4
			c-0.5,0-1-0.1-1.4-0.3c-0.4-0.2-0.8-0.5-1.1-0.9c-0.3-0.4-0.5-0.9-0.7-1.5c-0.2-0.6-0.2-1.3-0.2-2c0-0.7,0.1-1.3,0.3-1.9
			s0.4-1.1,0.8-1.5c0.3-0.4,0.7-0.8,1.2-1c0.5-0.2,1-0.4,1.7-0.4c0.6,0,1,0.1,1.4,0.3c0.4,0.2,0.8,0.5,1.1,0.8v-5H190.2z
			 M188.6,39.7c-0.3-0.4-0.6-0.7-1-0.8c-0.3-0.2-0.7-0.2-1.2-0.2c-0.8,0-1.5,0.3-2,0.9c-0.5,0.6-0.7,1.5-0.7,2.6
			c0,0.6,0.1,1.1,0.2,1.5s0.3,0.8,0.5,1c0.2,0.3,0.4,0.5,0.7,0.6c0.3,0.1,0.6,0.2,1,0.2c0.5,0,1-0.1,1.4-0.4c0.4-0.2,0.8-0.6,1.1-1
			V39.7z"/>
		<path class="st0" d="M196.6,37.4c0.7,0,1.3,0.1,1.8,0.3c0.5,0.2,1,0.5,1.4,0.9c0.4,0.4,0.7,0.9,0.9,1.5s0.3,1.2,0.3,1.9
			c0,0.7-0.1,1.4-0.3,1.9c-0.2,0.6-0.5,1.1-0.9,1.5c-0.4,0.4-0.8,0.7-1.4,0.9c-0.5,0.2-1.1,0.3-1.8,0.3c-0.7,0-1.3-0.1-1.8-0.3
			c-0.5-0.2-1-0.5-1.4-0.9c-0.4-0.4-0.7-0.9-0.9-1.5c-0.2-0.6-0.3-1.2-0.3-1.9c0-0.7,0.1-1.4,0.3-1.9s0.5-1.1,0.9-1.5
			c0.4-0.4,0.8-0.7,1.4-0.9C195.3,37.5,195.9,37.4,196.6,37.4z M196.6,45.5c0.9,0,1.6-0.3,2-0.9c0.4-0.6,0.7-1.4,0.7-2.5
			c0-1.1-0.2-1.9-0.7-2.5c-0.4-0.6-1.1-0.9-2-0.9c-0.5,0-0.9,0.1-1.2,0.2c-0.3,0.2-0.6,0.4-0.8,0.7s-0.4,0.7-0.5,1.1
			c-0.1,0.4-0.2,0.9-0.2,1.5c0,1.1,0.2,1.9,0.7,2.5S195.7,45.5,196.6,45.5z"/>
		<path class="st0" d="M204.4,38.9c0.2-0.2,0.4-0.4,0.6-0.6s0.5-0.3,0.7-0.5c0.2-0.1,0.5-0.2,0.8-0.3c0.3-0.1,0.6-0.1,0.9-0.1
			c0.5,0,0.9,0.1,1.3,0.2c0.4,0.2,0.7,0.4,1,0.7c0.3,0.3,0.4,0.7,0.6,1.1c0.1,0.4,0.2,0.9,0.2,1.4v5.8h-1.6v-5.8
			c0-0.7-0.2-1.2-0.5-1.6c-0.3-0.4-0.8-0.6-1.4-0.6c-0.5,0-0.9,0.1-1.3,0.3c-0.4,0.2-0.8,0.5-1.1,0.9v6.7h-1.6v-9.1h1
			c0.2,0,0.4,0.1,0.4,0.3L204.4,38.9z"/>
		<path class="st0" d="M219.7,46.7H218V33.8h1.7V46.7z"/>
		<path class="st0" d="M224,38.9c0.2-0.2,0.4-0.4,0.6-0.6c0.2-0.2,0.5-0.3,0.7-0.5c0.2-0.1,0.5-0.2,0.8-0.3c0.3-0.1,0.6-0.1,0.9-0.1
			c0.5,0,0.9,0.1,1.3,0.2c0.4,0.2,0.7,0.4,1,0.7c0.3,0.3,0.4,0.7,0.6,1.1c0.1,0.4,0.2,0.9,0.2,1.4v5.8h-1.6v-5.8
			c0-0.7-0.2-1.2-0.5-1.6c-0.3-0.4-0.8-0.6-1.4-0.6c-0.5,0-0.9,0.1-1.3,0.3c-0.4,0.2-0.8,0.5-1.1,0.9v6.7h-1.6v-9.1h1
			c0.2,0,0.4,0.1,0.4,0.3L224,38.9z"/>
		<path class="st0" d="M235.2,46.8c-0.7,0-1.3-0.2-1.7-0.6s-0.6-1-0.6-1.7v-5.6h-1.1c-0.1,0-0.2,0-0.2-0.1s-0.1-0.1-0.1-0.3v-0.6
			l1.5-0.2l0.4-2.8c0-0.1,0.1-0.2,0.1-0.2c0.1-0.1,0.1-0.1,0.2-0.1h0.8v3.1h2.6v1.2h-2.6v5.5c0,0.4,0.1,0.7,0.3,0.9
			c0.2,0.2,0.4,0.3,0.7,0.3c0.2,0,0.3,0,0.4-0.1c0.1,0,0.2-0.1,0.3-0.1c0.1-0.1,0.2-0.1,0.2-0.1c0.1,0,0.1-0.1,0.2-0.1
			c0.1,0,0.2,0.1,0.2,0.2l0.5,0.8c-0.3,0.3-0.6,0.5-1,0.6C236,46.7,235.6,46.8,235.2,46.8z"/>
		<path class="st0" d="M246.2,45.4c-0.2,0.2-0.4,0.4-0.7,0.6c-0.3,0.2-0.6,0.3-0.9,0.4c-0.3,0.1-0.6,0.2-1,0.3s-0.7,0.1-1,0.1
			c-0.6,0-1.2-0.1-1.7-0.3s-1-0.5-1.4-0.9s-0.7-0.9-0.9-1.5c-0.2-0.6-0.3-1.3-0.3-2.1c0-0.6,0.1-1.2,0.3-1.8c0.2-0.6,0.5-1,0.8-1.4
			c0.4-0.4,0.8-0.7,1.3-1s1.1-0.3,1.8-0.3c0.5,0,1.1,0.1,1.5,0.3s0.9,0.4,1.2,0.8c0.3,0.3,0.6,0.8,0.8,1.3c0.2,0.5,0.3,1.1,0.3,1.7
			c0,0.3,0,0.4-0.1,0.5c-0.1,0.1-0.2,0.1-0.3,0.1h-6.1c0,0.6,0.1,1.1,0.2,1.5c0.1,0.4,0.3,0.8,0.6,1.1s0.6,0.5,0.9,0.6
			c0.3,0.1,0.7,0.2,1.2,0.2c0.4,0,0.8,0,1-0.1c0.3-0.1,0.5-0.2,0.8-0.3c0.2-0.1,0.4-0.2,0.5-0.3c0.1-0.1,0.3-0.1,0.4-0.1
			c0.1,0,0.2,0.1,0.3,0.2L246.2,45.4z M244.9,41.1c0-0.4-0.1-0.7-0.2-1c-0.1-0.3-0.3-0.6-0.5-0.8c-0.2-0.2-0.4-0.4-0.7-0.5
			s-0.6-0.2-1-0.2c-0.8,0-1.4,0.2-1.8,0.7c-0.4,0.4-0.7,1.1-0.8,1.9H244.9z"/>
		<path class="st0" d="M249.8,39.4c0.3-0.6,0.6-1.1,1.1-1.5s0.9-0.5,1.5-0.5c0.2,0,0.4,0,0.6,0.1c0.2,0,0.3,0.1,0.5,0.2l-0.1,1.2
			c0,0.1-0.1,0.2-0.3,0.2c-0.1,0-0.2,0-0.4-0.1s-0.3-0.1-0.5-0.1c-0.3,0-0.5,0-0.8,0.1c-0.2,0.1-0.4,0.2-0.6,0.4
			c-0.2,0.2-0.3,0.4-0.5,0.6c-0.1,0.2-0.3,0.5-0.4,0.8v5.8h-1.6v-9.1h0.9c0.2,0,0.3,0,0.4,0.1s0.1,0.2,0.1,0.3L249.8,39.4z"/>
		<path class="st0" d="M262.1,33.4v13.3h-1c-0.2,0-0.4-0.1-0.4-0.3l-0.1-1.1c-0.4,0.5-0.8,0.8-1.3,1.1s-1.1,0.4-1.7,0.4
			c-0.5,0-1-0.1-1.4-0.3c-0.4-0.2-0.8-0.5-1.1-0.9c-0.3-0.4-0.5-0.9-0.7-1.5s-0.2-1.3-0.2-2c0-0.7,0.1-1.3,0.3-1.9s0.4-1.1,0.8-1.5
			c0.3-0.4,0.7-0.8,1.2-1c0.5-0.2,1-0.4,1.7-0.4c0.6,0,1,0.1,1.4,0.3s0.8,0.5,1.1,0.8v-5H262.1z M260.5,39.7c-0.3-0.4-0.6-0.7-1-0.8
			c-0.3-0.2-0.7-0.2-1.2-0.2c-0.8,0-1.5,0.3-2,0.9c-0.5,0.6-0.7,1.5-0.7,2.6c0,0.6,0.1,1.1,0.2,1.5c0.1,0.4,0.3,0.8,0.4,1
			c0.2,0.3,0.4,0.5,0.7,0.6c0.3,0.1,0.6,0.2,1,0.2c0.5,0,1-0.1,1.4-0.4c0.4-0.2,0.8-0.6,1.1-1V39.7z"/>
		<path class="st0" d="M266.6,34.7c0,0.2,0,0.3-0.1,0.4c-0.1,0.1-0.1,0.3-0.3,0.4s-0.2,0.2-0.4,0.2s-0.3,0.1-0.4,0.1s-0.3,0-0.4-0.1
			c-0.1-0.1-0.3-0.1-0.4-0.2c-0.1-0.1-0.2-0.2-0.2-0.4c-0.1-0.1-0.1-0.3-0.1-0.4c0-0.2,0-0.3,0.1-0.4c0.1-0.1,0.1-0.3,0.2-0.4
			c0.1-0.1,0.2-0.2,0.4-0.2c0.1-0.1,0.3-0.1,0.4-0.1s0.3,0,0.4,0.1s0.3,0.1,0.4,0.2s0.2,0.2,0.3,0.4
			C266.6,34.4,266.6,34.5,266.6,34.7z M266.3,37.5v9.1h-1.6v-9.1H266.3z"/>
		<path class="st0" d="M274.2,39c-0.1,0.1-0.2,0.2-0.3,0.2c-0.1,0-0.2,0-0.3-0.1c-0.1-0.1-0.3-0.1-0.4-0.2c-0.2-0.1-0.4-0.2-0.6-0.2
			s-0.5-0.1-0.8-0.1c-0.3,0-0.5,0-0.7,0.1s-0.4,0.2-0.6,0.3c-0.2,0.1-0.3,0.3-0.4,0.4c-0.1,0.2-0.1,0.3-0.1,0.5
			c0,0.2,0.1,0.4,0.2,0.6c0.1,0.2,0.3,0.3,0.5,0.4c0.2,0.1,0.5,0.2,0.8,0.3c0.3,0.1,0.6,0.2,0.9,0.3s0.6,0.2,0.9,0.3
			c0.3,0.1,0.5,0.3,0.8,0.4c0.2,0.2,0.4,0.4,0.5,0.7c0.1,0.3,0.2,0.6,0.2,0.9c0,0.4-0.1,0.8-0.2,1.2c-0.2,0.4-0.4,0.7-0.7,0.9
			c-0.3,0.3-0.7,0.5-1.1,0.6s-0.9,0.2-1.5,0.2c-0.6,0-1.2-0.1-1.7-0.3s-1-0.5-1.3-0.8l0.4-0.6c0-0.1,0.1-0.1,0.2-0.2
			c0.1,0,0.1-0.1,0.3-0.1c0.1,0,0.2,0,0.3,0.1c0.1,0.1,0.3,0.2,0.4,0.3c0.2,0.1,0.4,0.2,0.6,0.3s0.6,0.1,0.9,0.1
			c0.3,0,0.6,0,0.8-0.1s0.4-0.2,0.6-0.3s0.3-0.3,0.3-0.5c0.1-0.2,0.1-0.4,0.1-0.6c0-0.3-0.1-0.5-0.2-0.6c-0.1-0.2-0.3-0.3-0.5-0.4
			c-0.2-0.1-0.5-0.2-0.8-0.3c-0.3-0.1-0.6-0.2-0.9-0.3c-0.3-0.1-0.6-0.2-0.9-0.3s-0.5-0.3-0.8-0.5c-0.2-0.2-0.4-0.4-0.5-0.7
			c-0.1-0.3-0.2-0.6-0.2-1c0-0.3,0.1-0.7,0.2-1c0.1-0.3,0.4-0.6,0.6-0.8c0.3-0.2,0.6-0.4,1-0.6s0.9-0.2,1.4-0.2
			c0.6,0,1.1,0.1,1.6,0.3s0.9,0.4,1.2,0.8L274.2,39z"/>
		<path class="st0" d="M283.1,39.2c0,0.1-0.1,0.1-0.1,0.2c0,0-0.1,0.1-0.2,0.1c-0.1,0-0.2,0-0.3-0.1c-0.1-0.1-0.2-0.2-0.4-0.2
			c-0.2-0.1-0.4-0.2-0.6-0.2s-0.5-0.1-0.9-0.1c-0.4,0-0.8,0.1-1.2,0.2c-0.3,0.2-0.6,0.4-0.9,0.7c-0.2,0.3-0.4,0.7-0.5,1.1
			c-0.1,0.4-0.2,0.9-0.2,1.4c0,0.6,0.1,1,0.2,1.5c0.1,0.4,0.3,0.8,0.5,1.1c0.2,0.3,0.5,0.5,0.8,0.7c0.3,0.2,0.7,0.2,1.1,0.2
			c0.4,0,0.7,0,1-0.1c0.3-0.1,0.5-0.2,0.6-0.3c0.2-0.1,0.3-0.2,0.4-0.3c0.1-0.1,0.2-0.1,0.3-0.1c0.1,0,0.2,0.1,0.3,0.2l0.4,0.6
			c-0.2,0.2-0.4,0.5-0.7,0.6s-0.5,0.3-0.8,0.4c-0.3,0.1-0.6,0.2-0.9,0.3c-0.3,0.1-0.6,0.1-1,0.1c-0.6,0-1.1-0.1-1.6-0.3
			c-0.5-0.2-0.9-0.5-1.3-0.9s-0.6-0.9-0.8-1.5c-0.2-0.6-0.3-1.2-0.3-2c0-0.7,0.1-1.3,0.3-1.9c0.2-0.6,0.5-1.1,0.8-1.5
			c0.4-0.4,0.8-0.7,1.3-1c0.5-0.2,1.1-0.4,1.8-0.4c0.6,0,1.2,0.1,1.7,0.3c0.5,0.2,0.9,0.5,1.3,0.9L283.1,39.2z"/>
		<path class="st0" d="M287.3,34.7c0,0.2,0,0.3-0.1,0.4c-0.1,0.1-0.1,0.3-0.3,0.4c-0.1,0.1-0.2,0.2-0.4,0.2
			c-0.1,0.1-0.3,0.1-0.4,0.1c-0.2,0-0.3,0-0.4-0.1s-0.3-0.1-0.4-0.2s-0.2-0.2-0.2-0.4c-0.1-0.1-0.1-0.3-0.1-0.4c0-0.2,0-0.3,0.1-0.4
			c0.1-0.1,0.1-0.3,0.2-0.4s0.2-0.2,0.4-0.2s0.3-0.1,0.4-0.1c0.2,0,0.3,0,0.4,0.1c0.1,0.1,0.3,0.1,0.4,0.2c0.1,0.1,0.2,0.2,0.3,0.4
			C287.3,34.4,287.3,34.5,287.3,34.7z M287,37.5v9.1h-1.6v-9.1H287z"/>
		<path class="st0" d="M291.2,39c0.4-0.5,0.8-0.9,1.3-1.1c0.5-0.3,1.1-0.4,1.7-0.4c0.5,0,1,0.1,1.4,0.3c0.4,0.2,0.8,0.5,1.1,0.9
			c0.3,0.4,0.5,0.9,0.7,1.5s0.2,1.3,0.2,2c0,0.7-0.1,1.3-0.3,1.9c-0.2,0.6-0.4,1.1-0.8,1.5c-0.3,0.4-0.8,0.8-1.2,1
			c-0.5,0.2-1,0.4-1.7,0.4c-0.6,0-1-0.1-1.4-0.3c-0.4-0.2-0.8-0.5-1.1-0.8v4h-1.6V37.5h1c0.2,0,0.4,0.1,0.4,0.3L291.2,39z
			 M291.2,44.5c0.3,0.4,0.6,0.7,1,0.8s0.7,0.2,1.2,0.2c0.9,0,1.5-0.3,2-0.9c0.5-0.6,0.7-1.5,0.7-2.6c0-0.6-0.1-1.1-0.2-1.5
			c-0.1-0.4-0.3-0.8-0.5-1c-0.2-0.3-0.4-0.5-0.7-0.6c-0.3-0.1-0.6-0.2-1-0.2c-0.5,0-1,0.1-1.4,0.4c-0.4,0.2-0.8,0.6-1.1,1V44.5z"/>
		<path class="st0" d="M301.4,33.4v13.3h-1.6V33.4H301.4z"/>
		<path class="st0" d="M306,34.7c0,0.2,0,0.3-0.1,0.4c-0.1,0.1-0.1,0.3-0.3,0.4s-0.2,0.2-0.4,0.2s-0.3,0.1-0.4,0.1s-0.3,0-0.4-0.1
			c-0.1-0.1-0.3-0.1-0.4-0.2c-0.1-0.1-0.2-0.2-0.2-0.4c-0.1-0.1-0.1-0.3-0.1-0.4c0-0.2,0-0.3,0.1-0.4c0.1-0.1,0.1-0.3,0.2-0.4
			c0.1-0.1,0.2-0.2,0.4-0.2c0.1-0.1,0.3-0.1,0.4-0.1s0.3,0,0.4,0.1s0.3,0.1,0.4,0.2s0.2,0.2,0.3,0.4C306,34.4,306,34.5,306,34.7z
			 M305.7,37.5v9.1h-1.6v-9.1H305.7z"/>
		<path class="st0" d="M309.8,38.9c0.2-0.2,0.4-0.4,0.6-0.6s0.5-0.3,0.7-0.5c0.2-0.1,0.5-0.2,0.8-0.3c0.3-0.1,0.6-0.1,0.9-0.1
			c0.5,0,0.9,0.1,1.3,0.2c0.4,0.2,0.7,0.4,1,0.7c0.3,0.3,0.4,0.7,0.6,1.1c0.1,0.4,0.2,0.9,0.2,1.4v5.8h-1.6v-5.8
			c0-0.7-0.2-1.2-0.5-1.6c-0.3-0.4-0.8-0.6-1.4-0.6c-0.5,0-0.9,0.1-1.3,0.3c-0.4,0.2-0.8,0.5-1.1,0.9v6.7h-1.6v-9.1h1
			c0.2,0,0.4,0.1,0.4,0.3L309.8,38.9z"/>
		<path class="st0" d="M318.1,38.8c0.5-0.5,1-0.8,1.6-1.1c0.6-0.2,1.2-0.4,1.9-0.4c0.5,0,1,0.1,1.4,0.3c0.4,0.2,0.7,0.4,1,0.7
			c0.3,0.3,0.5,0.7,0.6,1.1c0.1,0.4,0.2,0.9,0.2,1.4v5.8h-0.7c-0.2,0-0.3,0-0.4-0.1c-0.1-0.1-0.2-0.2-0.2-0.3l-0.2-0.9
			c-0.2,0.2-0.5,0.4-0.7,0.6c-0.2,0.2-0.5,0.3-0.7,0.4c-0.3,0.1-0.5,0.2-0.8,0.3s-0.6,0.1-0.9,0.1c-0.4,0-0.7,0-1-0.1
			c-0.3-0.1-0.6-0.2-0.8-0.4c-0.2-0.2-0.4-0.4-0.6-0.8c-0.1-0.3-0.2-0.7-0.2-1.1c0-0.4,0.1-0.7,0.3-1c0.2-0.3,0.5-0.6,1-0.9
			c0.4-0.3,1-0.5,1.7-0.6c0.7-0.2,1.6-0.3,2.6-0.3v-0.7c0-0.7-0.2-1.2-0.5-1.6c-0.3-0.4-0.8-0.5-1.3-0.5c-0.4,0-0.7,0-1,0.1
			s-0.5,0.2-0.7,0.3s-0.4,0.2-0.5,0.3s-0.3,0.1-0.4,0.1c-0.1,0-0.2,0-0.3-0.1s-0.1-0.1-0.2-0.2L318.1,38.8z M323.3,42.6
			c-0.7,0-1.4,0.1-1.9,0.2c-0.5,0.1-0.9,0.2-1.3,0.4c-0.3,0.1-0.6,0.3-0.7,0.5c-0.1,0.2-0.2,0.4-0.2,0.7c0,0.2,0,0.4,0.1,0.6
			c0.1,0.2,0.2,0.3,0.3,0.4c0.1,0.1,0.3,0.2,0.5,0.2c0.2,0.1,0.4,0.1,0.6,0.1c0.3,0,0.5,0,0.8-0.1c0.2-0.1,0.5-0.1,0.7-0.2
			s0.4-0.2,0.6-0.4c0.2-0.1,0.4-0.3,0.6-0.5V42.6z"/>
		<path class="st0" d="M328.8,39.4c0.3-0.6,0.6-1.1,1.1-1.5s0.9-0.5,1.5-0.5c0.2,0,0.4,0,0.6,0.1c0.2,0,0.3,0.1,0.5,0.2l-0.1,1.2
			c0,0.1-0.1,0.2-0.3,0.2c-0.1,0-0.2,0-0.4-0.1s-0.3-0.1-0.5-0.1c-0.3,0-0.5,0-0.8,0.1s-0.4,0.2-0.6,0.4c-0.2,0.2-0.3,0.4-0.5,0.6
			c-0.1,0.2-0.3,0.5-0.4,0.8v5.8h-1.6v-9.1h0.9c0.2,0,0.3,0,0.4,0.1s0.1,0.2,0.1,0.3L328.8,39.4z"/>
		<path class="st0" d="M341.7,37.5l-5.1,11.8c-0.1,0.1-0.1,0.2-0.2,0.3c-0.1,0.1-0.2,0.1-0.4,0.1h-1.2l1.7-3.6l-3.8-8.6h1.4
			c0.1,0,0.2,0,0.3,0.1c0.1,0.1,0.1,0.1,0.2,0.2l2.4,5.7c0.1,0.3,0.2,0.5,0.2,0.8c0.1-0.3,0.2-0.5,0.3-0.8l2.4-5.7
			c0-0.1,0.1-0.2,0.2-0.2c0.1-0.1,0.2-0.1,0.3-0.1H341.7z"/>
		<path class="st0" d="M165.4,61.8c0,1-0.2,1.8-0.5,2.6s-0.7,1.5-1.3,2c-0.6,0.6-1.2,1-2,1.3s-1.6,0.5-2.6,0.5h-4.8V55.4h4.8
			c0.9,0,1.8,0.2,2.6,0.5s1.5,0.7,2,1.3c0.6,0.6,1,1.2,1.3,2S165.4,60.8,165.4,61.8z M163.6,61.8c0-0.8-0.1-1.5-0.3-2.1
			c-0.2-0.6-0.5-1.2-0.9-1.6c-0.4-0.4-0.9-0.8-1.4-1s-1.2-0.3-1.9-0.3h-3.1v10.1h3.1c0.7,0,1.3-0.1,1.9-0.3s1-0.6,1.4-1
			c0.4-0.4,0.7-1,0.9-1.6C163.5,63.3,163.6,62.6,163.6,61.8z"/>
		<path class="st0" d="M171.2,59c0.7,0,1.3,0.1,1.8,0.3c0.5,0.2,1,0.5,1.4,0.9c0.4,0.4,0.7,0.9,0.9,1.5s0.3,1.2,0.3,1.9
			c0,0.7-0.1,1.4-0.3,1.9c-0.2,0.6-0.5,1.1-0.9,1.5c-0.4,0.4-0.8,0.7-1.4,0.9c-0.5,0.2-1.1,0.3-1.8,0.3c-0.7,0-1.3-0.1-1.8-0.3
			c-0.5-0.2-1-0.5-1.4-0.9c-0.4-0.4-0.7-0.9-0.9-1.5c-0.2-0.6-0.3-1.2-0.3-1.9c0-0.7,0.1-1.4,0.3-1.9s0.5-1.1,0.9-1.5
			c0.4-0.4,0.8-0.7,1.4-0.9C169.9,59.1,170.5,59,171.2,59z M171.2,67.1c0.9,0,1.6-0.3,2-0.9c0.4-0.6,0.7-1.4,0.7-2.5
			c0-1.1-0.2-1.9-0.7-2.5c-0.4-0.6-1.1-0.9-2-0.9c-0.5,0-0.9,0.1-1.2,0.2c-0.3,0.2-0.6,0.4-0.8,0.7s-0.4,0.7-0.5,1.1
			c-0.1,0.4-0.2,0.9-0.2,1.5c0,1.1,0.2,1.9,0.7,2.5S170.3,67.1,171.2,67.1z"/>
		<path class="st0" d="M183.9,60.8c0,0.1-0.1,0.1-0.1,0.2c0,0-0.1,0.1-0.2,0.1c-0.1,0-0.2,0-0.3-0.1c-0.1-0.1-0.2-0.2-0.4-0.2
			c-0.2-0.1-0.4-0.2-0.6-0.2s-0.5-0.1-0.9-0.1c-0.4,0-0.8,0.1-1.2,0.2c-0.3,0.2-0.6,0.4-0.9,0.7c-0.2,0.3-0.4,0.7-0.5,1.1
			c-0.1,0.4-0.2,0.9-0.2,1.4c0,0.6,0.1,1,0.2,1.5c0.1,0.4,0.3,0.8,0.5,1.1c0.2,0.3,0.5,0.5,0.8,0.7c0.3,0.2,0.7,0.2,1.1,0.2
			c0.4,0,0.7,0,1-0.1c0.3-0.1,0.5-0.2,0.6-0.3c0.2-0.1,0.3-0.2,0.4-0.3c0.1-0.1,0.2-0.1,0.3-0.1c0.1,0,0.2,0.1,0.3,0.2l0.4,0.6
			c-0.2,0.2-0.4,0.5-0.7,0.6s-0.5,0.3-0.8,0.4c-0.3,0.1-0.6,0.2-0.9,0.3c-0.3,0.1-0.6,0.1-1,0.1c-0.6,0-1.1-0.1-1.6-0.3
			c-0.5-0.2-0.9-0.5-1.3-0.9s-0.6-0.9-0.8-1.5c-0.2-0.6-0.3-1.2-0.3-2c0-0.7,0.1-1.3,0.3-1.9c0.2-0.6,0.5-1.1,0.8-1.5
			c0.4-0.4,0.8-0.7,1.3-1c0.5-0.2,1.1-0.4,1.8-0.4c0.6,0,1.2,0.1,1.7,0.3c0.5,0.2,0.9,0.5,1.3,0.9L183.9,60.8z"/>
		<path class="st0" d="M189,68.4c-0.7,0-1.3-0.2-1.7-0.6s-0.6-1-0.6-1.7v-5.6h-1.1c-0.1,0-0.2,0-0.2-0.1s-0.1-0.1-0.1-0.3v-0.6
			l1.5-0.2l0.4-2.8c0-0.1,0.1-0.2,0.1-0.2c0.1-0.1,0.1-0.1,0.2-0.1h0.8v3.1h2.6v1.2h-2.6V66c0,0.4,0.1,0.7,0.3,0.9
			c0.2,0.2,0.4,0.3,0.7,0.3c0.2,0,0.3,0,0.4-0.1c0.1,0,0.2-0.1,0.3-0.1c0.1-0.1,0.2-0.1,0.2-0.1c0.1,0,0.1-0.1,0.2-0.1
			c0.1,0,0.2,0.1,0.2,0.2l0.5,0.8c-0.3,0.3-0.6,0.5-1,0.6C189.8,68.3,189.4,68.4,189,68.4z"/>
		<path class="st0" d="M196.4,59c0.7,0,1.3,0.1,1.8,0.3c0.5,0.2,1,0.5,1.4,0.9c0.4,0.4,0.7,0.9,0.9,1.5s0.3,1.2,0.3,1.9
			c0,0.7-0.1,1.4-0.3,1.9c-0.2,0.6-0.5,1.1-0.9,1.5c-0.4,0.4-0.8,0.7-1.4,0.9c-0.5,0.2-1.1,0.3-1.8,0.3c-0.7,0-1.3-0.1-1.8-0.3
			c-0.5-0.2-1-0.5-1.4-0.9c-0.4-0.4-0.7-0.9-0.9-1.5c-0.2-0.6-0.3-1.2-0.3-1.9c0-0.7,0.1-1.4,0.3-1.9s0.5-1.1,0.9-1.5
			c0.4-0.4,0.8-0.7,1.4-0.9C195.1,59.1,195.8,59,196.4,59z M196.4,67.1c0.9,0,1.6-0.3,2-0.9c0.4-0.6,0.7-1.4,0.7-2.5
			c0-1.1-0.2-1.9-0.7-2.5c-0.4-0.6-1.1-0.9-2-0.9c-0.5,0-0.9,0.1-1.2,0.2c-0.3,0.2-0.6,0.4-0.8,0.7c-0.2,0.3-0.4,0.7-0.5,1.1
			c-0.1,0.4-0.2,0.9-0.2,1.5c0,1.1,0.2,1.9,0.7,2.5S195.5,67.1,196.4,67.1z"/>
		<path class="st0" d="M204.3,61c0.3-0.6,0.6-1.1,1.1-1.5s0.9-0.5,1.5-0.5c0.2,0,0.4,0,0.6,0.1c0.2,0,0.3,0.1,0.5,0.2l-0.1,1.2
			c0,0.1-0.1,0.2-0.3,0.2c-0.1,0-0.2,0-0.4-0.1s-0.3-0.1-0.5-0.1c-0.3,0-0.5,0-0.8,0.1c-0.2,0.1-0.4,0.2-0.6,0.4
			c-0.2,0.2-0.3,0.4-0.5,0.6c-0.1,0.2-0.3,0.5-0.4,0.8v5.8h-1.6v-9.1h0.9c0.2,0,0.3,0,0.4,0.1s0.1,0.2,0.1,0.3L204.3,61z"/>
		<path class="st0" d="M209,60.4c0.5-0.5,1-0.8,1.6-1.1c0.6-0.2,1.2-0.4,1.9-0.4c0.5,0,1,0.1,1.4,0.3c0.4,0.2,0.7,0.4,1,0.7
			c0.3,0.3,0.5,0.7,0.6,1.1c0.1,0.4,0.2,0.9,0.2,1.4v5.8H215c-0.2,0-0.3,0-0.4-0.1c-0.1-0.1-0.2-0.2-0.2-0.3l-0.2-0.9
			c-0.2,0.2-0.5,0.4-0.7,0.6c-0.2,0.2-0.5,0.3-0.7,0.4c-0.3,0.1-0.5,0.2-0.8,0.3s-0.6,0.1-0.9,0.1c-0.4,0-0.7,0-1-0.1
			c-0.3-0.1-0.6-0.2-0.8-0.4c-0.2-0.2-0.4-0.4-0.6-0.8c-0.1-0.3-0.2-0.7-0.2-1.1c0-0.4,0.1-0.7,0.3-1c0.2-0.3,0.5-0.6,1-0.9
			c0.4-0.3,1-0.5,1.7-0.6c0.7-0.2,1.6-0.3,2.6-0.3v-0.7c0-0.7-0.2-1.2-0.5-1.6c-0.3-0.4-0.8-0.5-1.3-0.5c-0.4,0-0.7,0-1,0.1
			s-0.5,0.2-0.7,0.3s-0.4,0.2-0.5,0.3s-0.3,0.1-0.4,0.1c-0.1,0-0.2,0-0.3-0.1s-0.1-0.1-0.2-0.2L209,60.4z M214.1,64.2
			c-0.7,0-1.4,0.1-1.9,0.2c-0.5,0.1-0.9,0.2-1.3,0.4c-0.3,0.1-0.6,0.3-0.7,0.5c-0.1,0.2-0.2,0.4-0.2,0.7c0,0.2,0,0.4,0.1,0.6
			c0.1,0.2,0.2,0.3,0.3,0.4c0.1,0.1,0.3,0.2,0.5,0.2c0.2,0.1,0.4,0.1,0.6,0.1c0.3,0,0.5,0,0.8-0.1c0.2-0.1,0.5-0.1,0.7-0.2
			s0.4-0.2,0.6-0.4c0.2-0.1,0.4-0.3,0.6-0.5V64.2z"/>
		<path class="st0" d="M219.8,55v13.3h-1.6V55H219.8z"/>
		<path class="st0" d="M231.2,55.4c0.8,0,1.5,0.1,2.1,0.3c0.6,0.2,1.1,0.5,1.5,0.8c0.4,0.3,0.7,0.8,0.9,1.3c0.2,0.5,0.3,1,0.3,1.6
			c0,0.6-0.1,1.1-0.3,1.6c-0.2,0.5-0.5,0.9-0.9,1.3c-0.4,0.4-0.9,0.6-1.5,0.8c-0.6,0.2-1.3,0.3-2.1,0.3h-2.1v4.8h-1.7V55.4H231.2z
			 M231.2,62c0.5,0,0.9-0.1,1.3-0.2c0.4-0.1,0.7-0.3,1-0.6c0.3-0.2,0.5-0.5,0.6-0.9c0.1-0.3,0.2-0.7,0.2-1.1c0-0.8-0.3-1.5-0.8-1.9
			c-0.5-0.5-1.3-0.7-2.3-0.7h-2.1V62H231.2z"/>
		<path class="st0" d="M239.2,61c0.3-0.6,0.6-1.1,1.1-1.5s0.9-0.5,1.5-0.5c0.2,0,0.4,0,0.6,0.1c0.2,0,0.3,0.1,0.5,0.2l-0.1,1.2
			c0,0.1-0.1,0.2-0.3,0.2c-0.1,0-0.2,0-0.4-0.1s-0.3-0.1-0.5-0.1c-0.3,0-0.5,0-0.8,0.1c-0.2,0.1-0.4,0.2-0.6,0.4
			c-0.2,0.2-0.3,0.4-0.5,0.6c-0.1,0.2-0.3,0.5-0.4,0.8v5.8h-1.6v-9.1h0.9c0.2,0,0.3,0,0.4,0.1s0.1,0.2,0.1,0.3L239.2,61z"/>
		<path class="st0" d="M247.7,59c0.7,0,1.3,0.1,1.8,0.3c0.5,0.2,1,0.5,1.4,0.9c0.4,0.4,0.7,0.9,0.9,1.5s0.3,1.2,0.3,1.9
			c0,0.7-0.1,1.4-0.3,1.9c-0.2,0.6-0.5,1.1-0.9,1.5c-0.4,0.4-0.8,0.7-1.4,0.9c-0.5,0.2-1.1,0.3-1.8,0.3c-0.7,0-1.3-0.1-1.8-0.3
			c-0.5-0.2-1-0.5-1.4-0.9c-0.4-0.4-0.7-0.9-0.9-1.5c-0.2-0.6-0.3-1.2-0.3-1.9c0-0.7,0.1-1.4,0.3-1.9s0.5-1.1,0.9-1.5
			c0.4-0.4,0.8-0.7,1.4-0.9C246.4,59.1,247,59,247.7,59z M247.7,67.1c0.9,0,1.6-0.3,2-0.9c0.4-0.6,0.7-1.4,0.7-2.5
			c0-1.1-0.2-1.9-0.7-2.5c-0.4-0.6-1.1-0.9-2-0.9c-0.5,0-0.9,0.1-1.2,0.2c-0.3,0.2-0.6,0.4-0.8,0.7s-0.4,0.7-0.5,1.1
			c-0.1,0.4-0.2,0.9-0.2,1.5c0,1.1,0.2,1.9,0.7,2.5S246.7,67.1,247.7,67.1z"/>
		<path class="st0" d="M261.7,59.5v0.6c0,0.2-0.1,0.3-0.4,0.4l-1,0.1c0.2,0.4,0.3,0.8,0.3,1.3c0,0.4-0.1,0.8-0.3,1.2
			c-0.2,0.4-0.4,0.7-0.7,0.9c-0.3,0.3-0.7,0.5-1.1,0.6c-0.4,0.1-0.9,0.2-1.4,0.2c-0.4,0-0.8-0.1-1.2-0.2c-0.2,0.1-0.3,0.2-0.4,0.4
			c-0.1,0.1-0.2,0.3-0.2,0.4c0,0.2,0.1,0.4,0.3,0.5c0.2,0.1,0.4,0.2,0.7,0.2c0.3,0,0.6,0.1,1,0.1c0.4,0,0.7,0,1.1,0.1
			s0.8,0.1,1.1,0.1s0.7,0.2,1,0.3c0.3,0.1,0.5,0.4,0.7,0.6s0.3,0.6,0.3,1c0,0.4-0.1,0.8-0.3,1.1c-0.2,0.4-0.5,0.7-0.8,1
			c-0.4,0.3-0.8,0.5-1.3,0.7c-0.5,0.2-1.1,0.3-1.8,0.3s-1.2-0.1-1.7-0.2s-0.9-0.3-1.2-0.5c-0.3-0.2-0.6-0.5-0.7-0.8
			c-0.2-0.3-0.2-0.6-0.2-0.9c0-0.5,0.1-0.8,0.4-1.1s0.7-0.6,1.2-0.7c-0.3-0.1-0.5-0.3-0.6-0.5c-0.2-0.2-0.2-0.5-0.2-0.8
			c0-0.1,0-0.3,0.1-0.4c0-0.1,0.1-0.3,0.2-0.4c0.1-0.1,0.2-0.3,0.4-0.4c0.1-0.1,0.3-0.2,0.5-0.3c-0.4-0.3-0.8-0.6-1.1-1
			s-0.4-0.9-0.4-1.5c0-0.4,0.1-0.8,0.3-1.2c0.2-0.4,0.4-0.7,0.7-0.9c0.3-0.3,0.7-0.5,1.1-0.6c0.4-0.1,0.9-0.2,1.4-0.2
			c0.4,0,0.8,0,1.1,0.1c0.3,0.1,0.7,0.2,0.9,0.4H261.7z M260,68.8c0-0.2-0.1-0.4-0.2-0.5c-0.1-0.1-0.3-0.2-0.5-0.3
			c-0.2-0.1-0.5-0.1-0.7-0.2c-0.3,0-0.6-0.1-0.9-0.1c-0.3,0-0.6,0-1-0.1s-0.6,0-0.9-0.1c-0.3,0.2-0.6,0.4-0.8,0.6s-0.3,0.5-0.3,0.8
			c0,0.2,0.1,0.4,0.2,0.6c0.1,0.2,0.3,0.3,0.5,0.5c0.2,0.1,0.5,0.2,0.8,0.3c0.3,0.1,0.7,0.1,1.2,0.1c0.4,0,0.8,0,1.2-0.1
			c0.3-0.1,0.6-0.2,0.9-0.3c0.2-0.1,0.4-0.3,0.5-0.5C260,69.2,260,69,260,68.8z M257.2,63.8c0.3,0,0.6,0,0.9-0.1
			c0.2-0.1,0.5-0.2,0.6-0.4c0.2-0.2,0.3-0.4,0.4-0.6c0.1-0.2,0.1-0.5,0.1-0.7c0-0.6-0.2-1-0.5-1.3c-0.3-0.3-0.8-0.5-1.5-0.5
			c-0.6,0-1.1,0.2-1.5,0.5c-0.3,0.3-0.5,0.8-0.5,1.3c0,0.3,0,0.5,0.1,0.7c0.1,0.2,0.2,0.4,0.4,0.6c0.2,0.2,0.4,0.3,0.6,0.4
			C256.5,63.8,256.8,63.8,257.2,63.8z"/>
		<path class="st0" d="M264.9,61c0.3-0.6,0.6-1.1,1.1-1.5s0.9-0.5,1.5-0.5c0.2,0,0.4,0,0.6,0.1c0.2,0,0.3,0.1,0.5,0.2l-0.1,1.2
			c0,0.1-0.1,0.2-0.3,0.2c-0.1,0-0.2,0-0.4-0.1s-0.3-0.1-0.5-0.1c-0.3,0-0.5,0-0.8,0.1s-0.4,0.2-0.6,0.4c-0.2,0.2-0.3,0.4-0.5,0.6
			c-0.1,0.2-0.3,0.5-0.4,0.8v5.8h-1.6v-9.1h0.9c0.2,0,0.3,0,0.4,0.1s0.1,0.2,0.1,0.3L264.9,61z"/>
		<path class="st0" d="M269.5,60.4c0.5-0.5,1-0.8,1.6-1.1c0.6-0.2,1.2-0.4,1.9-0.4c0.5,0,1,0.1,1.4,0.3s0.7,0.4,1,0.7
			c0.3,0.3,0.5,0.7,0.6,1.1c0.1,0.4,0.2,0.9,0.2,1.4v5.8h-0.7c-0.2,0-0.3,0-0.4-0.1c-0.1-0.1-0.2-0.2-0.2-0.3l-0.2-0.9
			c-0.2,0.2-0.5,0.4-0.7,0.6c-0.2,0.2-0.5,0.3-0.7,0.4c-0.3,0.1-0.5,0.2-0.8,0.3s-0.6,0.1-0.9,0.1c-0.4,0-0.7,0-1-0.1
			s-0.6-0.2-0.8-0.4c-0.2-0.2-0.4-0.4-0.5-0.8c-0.1-0.3-0.2-0.7-0.2-1.1c0-0.4,0.1-0.7,0.3-1c0.2-0.3,0.5-0.6,1-0.9
			c0.4-0.3,1-0.5,1.7-0.6c0.7-0.2,1.6-0.3,2.6-0.3v-0.7c0-0.7-0.2-1.2-0.5-1.6c-0.3-0.4-0.8-0.5-1.3-0.5c-0.4,0-0.7,0-1,0.1
			c-0.3,0.1-0.5,0.2-0.7,0.3c-0.2,0.1-0.4,0.2-0.5,0.3c-0.1,0.1-0.3,0.1-0.4,0.1c-0.1,0-0.2,0-0.3-0.1c-0.1-0.1-0.1-0.1-0.2-0.2
			L269.5,60.4z M274.7,64.2c-0.7,0-1.4,0.1-1.9,0.2c-0.5,0.1-0.9,0.2-1.3,0.4c-0.3,0.1-0.6,0.3-0.7,0.5c-0.1,0.2-0.2,0.4-0.2,0.7
			c0,0.2,0,0.4,0.1,0.6c0.1,0.2,0.2,0.3,0.3,0.4c0.1,0.1,0.3,0.2,0.5,0.2c0.2,0.1,0.4,0.1,0.6,0.1c0.3,0,0.5,0,0.8-0.1
			s0.5-0.1,0.7-0.2s0.4-0.2,0.6-0.4c0.2-0.1,0.4-0.3,0.6-0.5V64.2z"/>
		<path class="st0" d="M278.7,68.3v-9.1h1c0.2,0,0.4,0.1,0.4,0.3l0.1,0.9c0.3-0.4,0.7-0.8,1.1-1c0.4-0.3,0.9-0.4,1.5-0.4
			c0.6,0,1.1,0.2,1.5,0.5c0.4,0.3,0.7,0.8,0.8,1.4c0.1-0.3,0.3-0.6,0.5-0.9c0.2-0.2,0.4-0.4,0.7-0.6c0.3-0.2,0.5-0.3,0.8-0.3
			c0.3-0.1,0.6-0.1,0.9-0.1c0.5,0,0.9,0.1,1.3,0.2c0.4,0.2,0.7,0.4,1,0.7c0.3,0.3,0.5,0.7,0.6,1.1c0.1,0.4,0.2,0.9,0.2,1.5v5.8h-1.6
			v-5.8c0-0.7-0.2-1.3-0.5-1.6c-0.3-0.4-0.8-0.6-1.3-0.6c-0.3,0-0.5,0-0.8,0.1c-0.2,0.1-0.4,0.2-0.6,0.4c-0.2,0.2-0.3,0.4-0.4,0.7
			c-0.1,0.3-0.2,0.6-0.2,0.9v5.8h-1.6v-5.8c0-0.7-0.1-1.3-0.4-1.6c-0.3-0.4-0.7-0.5-1.3-0.5c-0.4,0-0.8,0.1-1.1,0.3
			s-0.6,0.5-0.9,0.9v6.8H278.7z"/>
		<path class="st0" d="M293.5,68.3v-9.1h1c0.2,0,0.4,0.1,0.4,0.3l0.1,0.9c0.3-0.4,0.7-0.8,1.1-1c0.4-0.3,0.9-0.4,1.5-0.4
			c0.6,0,1.1,0.2,1.5,0.5c0.4,0.3,0.7,0.8,0.8,1.4c0.1-0.3,0.3-0.6,0.5-0.9c0.2-0.2,0.4-0.4,0.7-0.6c0.3-0.2,0.5-0.3,0.8-0.3
			c0.3-0.1,0.6-0.1,0.9-0.1c0.5,0,0.9,0.1,1.3,0.2c0.4,0.2,0.7,0.4,1,0.7s0.5,0.7,0.6,1.1c0.1,0.4,0.2,0.9,0.2,1.5v5.8h-1.6v-5.8
			c0-0.7-0.2-1.3-0.5-1.6c-0.3-0.4-0.8-0.6-1.3-0.6c-0.3,0-0.5,0-0.8,0.1c-0.2,0.1-0.4,0.2-0.6,0.4c-0.2,0.2-0.3,0.4-0.4,0.7
			s-0.2,0.6-0.2,0.9v5.8h-1.6v-5.8c0-0.7-0.1-1.3-0.4-1.6c-0.3-0.4-0.7-0.5-1.3-0.5c-0.4,0-0.8,0.1-1.1,0.3s-0.6,0.5-0.9,0.9v6.8
			H293.5z"/>
		<path class="st0" d="M315.7,67c-0.2,0.2-0.4,0.4-0.7,0.6c-0.3,0.2-0.6,0.3-0.9,0.4c-0.3,0.1-0.6,0.2-1,0.3s-0.7,0.1-1,0.1
			c-0.6,0-1.2-0.1-1.7-0.3s-1-0.5-1.4-0.9s-0.7-0.9-0.9-1.5c-0.2-0.6-0.3-1.3-0.3-2.1c0-0.6,0.1-1.2,0.3-1.8c0.2-0.6,0.5-1,0.8-1.4
			c0.4-0.4,0.8-0.7,1.3-1s1.1-0.3,1.8-0.3c0.5,0,1.1,0.1,1.5,0.3s0.9,0.4,1.2,0.8c0.3,0.3,0.6,0.8,0.8,1.3c0.2,0.5,0.3,1.1,0.3,1.7
			c0,0.3,0,0.4-0.1,0.5c-0.1,0.1-0.2,0.1-0.3,0.1h-6.1c0,0.6,0.1,1.1,0.2,1.5c0.1,0.4,0.3,0.8,0.6,1.1s0.6,0.5,0.9,0.6
			c0.3,0.1,0.7,0.2,1.2,0.2c0.4,0,0.8,0,1-0.1c0.3-0.1,0.5-0.2,0.8-0.3c0.2-0.1,0.4-0.2,0.5-0.3c0.1-0.1,0.3-0.1,0.4-0.1
			c0.1,0,0.2,0.1,0.3,0.2L315.7,67z M314.4,62.7c0-0.4-0.1-0.7-0.2-1c-0.1-0.3-0.3-0.6-0.5-0.8c-0.2-0.2-0.4-0.4-0.7-0.5
			s-0.6-0.2-1-0.2c-0.8,0-1.4,0.2-1.8,0.7c-0.4,0.4-0.7,1.1-0.8,1.9H314.4z"/>
	</g>
	<g>
		<path class="st0" d="M6.6,72h14c1.9,0,3.2,1,3.2,3.1c0,2.1-1.3,3.1-3.2,3.1H3.5C1,78.1,0,76.6,0,74.5V28c0-2.2,1.3-3.5,3.3-3.5
			c2,0,3.3,1.3,3.3,3.5V72z"/>
		<path class="st0" d="M35.6,75.1c0,2.2-1.3,3.5-3.3,3.5c-2,0-3.3-1.3-3.3-3.5V28c0-2.2,1.3-3.5,3.3-3.5c2,0,3.3,1.3,3.3,3.5V75.1z"
			/>
		<path class="st0" d="M44.6,28.6c0-2,1-3.6,3.5-3.6h12.9c15.8,0,23.6,12.2,23.6,26.3c0,15.9-8.4,26.9-22.7,26.9H48.1
			c-2.5,0-3.5-1.6-3.5-3.6V28.6z M51.2,72.4h9.4c12.4,0,17-10.4,17-21.2c0-10.9-4.9-20.6-17.5-20.6h-9V72.4z"/>
	</g>
	<g>
		<path class="st1" d="M142.3,101.3c-0.8,0.9-1.3,2.1-1.3,3.5c0.1,2.6,2.4,4.7,5,4.6s4.7-2.4,4.6-5c-0.1-2.6-2.4-4.7-5-4.6
			c-0.8,0-1.5,0.3-2.1,0.6l-18.9-23.9c-0.5,0.3-1,0.6-1.5,0.9L142.3,101.3z"/>
		<path class="st2" d="M118.3,89.1c-1.8,0.8-3,2.6-2.9,4.6c0.1,2.6,2.4,4.7,5,4.6c2.6-0.1,4.7-2.4,4.6-5c-0.1-2.6-2.4-4.7-5-4.6
			c0,0-0.1,0-0.1,0l-2.2-9.1c-0.6,0.1-1.1,0.3-1.7,0.4L118.3,89.1z"/>
		<path class="st3" d="M82.4,81.3c-0.6-0.5-1.3-0.8-2.1-0.9c-2.6-0.4-4.9,1.4-5.3,4c-0.4,2.6,1.4,4.9,4,5.3c2.6,0.4,4.9-1.4,5.3-4
			c0.2-1.2-0.1-2.3-0.8-3.3l11.2-10.4c-0.4-0.5-0.7-0.9-1.1-1.4L82.4,81.3z"/>
		<path class="st4" d="M96.5,102.8c-0.7-0.1-1.5,0-2.2,0.3c-2.4,0.9-3.6,3.6-2.7,6.1s3.6,3.6,6.1,2.7c2.4-0.9,3.6-3.6,2.7-6.1
			c-0.4-1.1-1.3-2-2.3-2.5l7.4-23.8c-0.6-0.2-1.2-0.4-1.8-0.7L96.5,102.8z"/>
		<path class="st5" d="M91.6,26.3c0.5-0.5,1-1.2,1.2-1.9c0.8-2.5-0.5-5.1-3-5.9c-2.5-0.8-5.1,0.5-5.9,3c-0.8,2.5,0.5,5.1,3,5.9
			c1.1,0.4,2.3,0.3,3.3-0.2l8.5,13c0.5-0.4,1-0.7,1.5-1L91.6,26.3z"/>
		<path class="st6" d="M111.8,35.9l0-26c0.9-0.1,1.7-0.5,2.4-1.1c2-1.7,2.2-4.7,0.5-6.7c-1.7-2-4.7-2.2-6.7-0.5
			c-2,1.7-2.2,4.7-0.5,6.7c0.7,0.9,1.7,1.4,2.8,1.6L109.9,36c0.3,0,0.7-0.1,1-0.1C111.2,35.9,111.5,35.9,111.8,35.9z"/>
		<path class="st7" d="M124.4,21.1c0.7,0.1,1.5,0,2.3-0.3c2.4-1,3.5-3.8,2.5-6.2c-1-2.4-3.8-3.5-6.2-2.5c-2.4,1-3.5,3.8-2.5,6.2
			c0.5,1.1,1.3,1.9,2.3,2.4l-4.5,16.2c0.6,0.2,1.2,0.4,1.8,0.6L124.4,21.1z"/>
		<path class="st8" d="M150,13.8c2.6-0.1,4.7-2.4,4.6-5c-0.1-2.6-2.4-4.7-5-4.6c-2.6,0.1-4.7,2.4-4.6,5c0.1,1.1,0.5,2.2,1.2,3
			l-21.8,27.4c0.5,0.3,1,0.7,1.5,1.1l21.6-27.5C148.2,13.7,149,13.9,150,13.8z"/>
		<path class="st0" d="M120,37.4c-0.6-0.2-1.2-0.4-1.8-0.6c-2.1-0.6-4.2-0.9-6.5-0.9c-0.3,0-0.6,0-0.9,0c-0.4,0-0.7,0-1,0.1
			c-3.5,0.3-6.8,1.5-9.6,3.2c-0.5,0.3-1,0.7-1.5,1c-5.7,4.3-9.3,11.2-9,18.9c0.2,4.3,1.6,8.2,3.8,11.5c0.3,0.5,0.7,1,1.1,1.4
			c2.4,2.9,5.4,5.2,8.9,6.6c0.6,0.2,1.2,0.5,1.8,0.7c2.4,0.7,4.9,1.1,7.6,1c1,0,1.9-0.2,2.8-0.3c0.6-0.1,1.1-0.2,1.7-0.4
			c2-0.5,3.9-1.3,5.6-2.3c0.5-0.3,1-0.6,1.5-0.9c6.1-4.2,9.9-11.4,9.6-19.3c-0.3-6.6-3.5-12.5-8.3-16.3c-0.5-0.4-1-0.8-1.5-1.1
			C123,38.8,121.6,38,120,37.4z M112.3,65.4c-4,0.2-7.4-2.9-7.6-6.9c-0.2-4,2.9-7.4,6.9-7.6c4-0.2,7.4,2.9,7.6,6.9
			C119.4,61.8,116.3,65.2,112.3,65.4z"/>
	</g>
</g>
<path class="st9" d="M117.8,64.6"/>
<ellipse transform="matrix(0.9989 -4.662794e-02 4.662794e-02 0.9989 -2.5884 5.2856)" class="st10" cx="112" cy="58.1" rx="7.3" ry="7.3"/>
</svg>
